  0
SECTION
  2
HEADER
  9
$ACADVER
  1
AC1015
  9
$ACADMAINTVER
 70
6
  9
$DWGCODEPAGE
  3
ANSI_1252
  9
$INSBASE
 10
0.0
 20
0.0
 30
0.0
  9
$EXTMIN
 10
1e+20
 20
1e+20
 30
1e+20
  9
$EXTMAX
 10
-1e+20
 20
-1e+20
 30
-1e+20
  9
$LIMMIN
 10
0.0
 20
0.0
  9
$LIMMAX
 10
420.0
 20
297.0
  9
$ORTHOMODE
 70
0
  9
$REGENMODE
 70
1
  9
$FILLMODE
 70
1
  9
$QTEXTMODE
 70
0
  9
$MIRRTEXT
 70
1
  9
$LTSCALE
 40
1.0
  9
$ATTMODE
 70
1
  9
$TEXTSIZE
 40
2.5
  9
$TRACEWID
 40
1.0
  9
$TEXTSTYLE
  7
Standard
  9
$CLAYER
  8
0
  9
$CELTYPE
  6
ByLayer
  9
$CECOLOR
 62
256
  9
$CELTSCALE
 40
1.0
  9
$DISPSILH
 70
0
  9
$DIMSCALE
 40
1.0
  9
$DIMASZ
 40
2.5
  9
$DIMEXO
 40
0.625
  9
$DIMDLI
 40
3.75
  9
$DIMRND
 40
0.0
  9
$DIMDLE
 40
0.0
  9
$DIMEXE
 40
1.25
  9
$DIMTP
 40
0.0
  9
$DIMTM
 40
0.0
  9
$DIMTXT
 40
2.5
  9
$DIMCEN
 40
2.5
  9
$DIMTSZ
 40
0.0
  9
$DIMTOL
 70
0
  9
$DIMLIM
 70
0
  9
$DIMTIH
 70
0
  9
$DIMTOH
 70
0
  9
$DIMSE1
 70
0
  9
$DIMSE2
 70
0
  9
$DIMTAD
 70
1
  9
$DIMZIN
 70
8
  9
$DIMBLK
  1

  9
$DIMASO
 70
1
  9
$DIMSHO
 70
1
  9
$DIMPOST
  1

  9
$DIMAPOST
  1

  9
$DIMALT
 70
0
  9
$DIMALTD
 70
3
  9
$DIMALTF
 40
0.03937007874
  9
$DIMLFAC
 40
1.0
  9
$DIMTOFL
 70
1
  9
$DIMTVP
 40
0.0
  9
$DIMTIX
 70
0
  9
$DIMSOXD
 70
0
  9
$DIMSAH
 70
0
  9
$DIMBLK1
  1

  9
$DIMBLK2
  1

  9
$DIMSTYLE
  2
ISO-25
  9
$DIMCLRD
 70
0
  9
$DIMCLRE
 70
0
  9
$DIMCLRT
 70
0
  9
$DIMTFAC
 40
1.0
  9
$DIMGAP
 40
0.625
  9
$DIMJUST
 70
0
  9
$DIMSD1
 70
0
  9
$DIMSD2
 70
0
  9
$DIMTOLJ
 70
0
  9
$DIMTZIN
 70
8
  9
$DIMALTZ
 70
0
  9
$DIMALTTZ
 70
0
  9
$DIMUPT
 70
0
  9
$DIMDEC
 70
2
  9
$DIMTDEC
 70
2
  9
$DIMALTU
 70
2
  9
$DIMALTTD
 70
3
  9
$DIMTXSTY
  7
Standard
  9
$DIMAUNIT
 70
0
  9
$DIMADEC
 70
0
  9
$DIMALTRND
 40
0.0
  9
$DIMAZIN
 70
0
  9
$DIMDSEP
 70
44
  9
$DIMATFIT
 70
3
  9
$DIMFRAC
 70
0
  9
$DIMLDRBLK
  1

  9
$DIMLUNIT
 70
2
  9
$DIMLWD
 70
-2
  9
$DIMLWE
 70
-2
  9
$DIMTMOVE
 70
0
  9
$LUNITS
 70
2
  9
$LUPREC
 70
4
  9
$SKETCHINC
 40
1.0
  9
$FILLETRAD
 40
10.0
  9
$AUNITS
 70
0
  9
$AUPREC
 70
2
  9
$MENU
  1
.
  9
$ELEVATION
 40
0.0
  9
$PELEVATION
 40
0.0
  9
$THICKNESS
 40
0.0
  9
$LIMCHECK
 70
0
  9
$CHAMFERA
 40
0.0
  9
$CHAMFERB
 40
0.0
  9
$CHAMFERC
 40
0.0
  9
$CHAMFERD
 40
0.0
  9
$SKPOLY
 70
0
  9
$TDCREATE
 40
2461169.769016204
  9
$TDUCREATE
 40
2458532.153996898
  9
$TDUPDATE
 40
2461169.769016204
  9
$TDUUPDATE
 40
2458532.1544311
  9
$TDINDWG
 40
0.0
  9
$TDUSRTIMER
 40
0.0
  9
$USRTIMER
 70
1
  9
$ANGBASE
 50
0.0
  9
$ANGDIR
 70
0
  9
$PDMODE
 70
0
  9
$PDSIZE
 40
0.0
  9
$PLINEWID
 40
0.0
  9
$SPLFRAME
 70
0
  9
$SPLINETYPE
 70
6
  9
$SPLINESEGS
 70
8
  9
$HANDSEED
  5
B0
  9
$SURFTAB1
 70
6
  9
$SURFTAB2
 70
6
  9
$SURFTYPE
 70
6
  9
$SURFU
 70
6
  9
$SURFV
 70
6
  9
$UCSBASE
  2

  9
$UCSNAME
  2

  9
$UCSORG
 10
0.0
 20
0.0
 30
0.0
  9
$UCSXDIR
 10
1.0
 20
0.0
 30
0.0
  9
$UCSYDIR
 10
0.0
 20
1.0
 30
0.0
  9
$UCSORTHOREF
  2

  9
$UCSORTHOVIEW
 70
0
  9
$UCSORGTOP
 10
0.0
 20
0.0
 30
0.0
  9
$UCSORGBOTTOM
 10
0.0
 20
0.0
 30
0.0
  9
$UCSORGLEFT
 10
0.0
 20
0.0
 30
0.0
  9
$UCSORGRIGHT
 10
0.0
 20
0.0
 30
0.0
  9
$UCSORGFRONT
 10
0.0
 20
0.0
 30
0.0
  9
$UCSORGBACK
 10
0.0
 20
0.0
 30
0.0
  9
$PUCSBASE
  2

  9
$PUCSNAME
  2

  9
$PUCSORG
 10
0.0
 20
0.0
 30
0.0
  9
$PUCSXDIR
 10
1.0
 20
0.0
 30
0.0
  9
$PUCSYDIR
 10
0.0
 20
1.0
 30
0.0
  9
$PUCSORTHOREF
  2

  9
$PUCSORTHOVIEW
 70
0
  9
$PUCSORGTOP
 10
0.0
 20
0.0
 30
0.0
  9
$PUCSORGBOTTOM
 10
0.0
 20
0.0
 30
0.0
  9
$PUCSORGLEFT
 10
0.0
 20
0.0
 30
0.0
  9
$PUCSORGRIGHT
 10
0.0
 20
0.0
 30
0.0
  9
$PUCSORGFRONT
 10
0.0
 20
0.0
 30
0.0
  9
$PUCSORGBACK
 10
0.0
 20
0.0
 30
0.0
  9
$USERI1
 70
0
  9
$USERI2
 70
0
  9
$USERI3
 70
0
  9
$USERI4
 70
0
  9
$USERI5
 70
0
  9
$USERR1
 40
0.0
  9
$USERR2
 40
0.0
  9
$USERR3
 40
0.0
  9
$USERR4
 40
0.0
  9
$USERR5
 40
0.0
  9
$WORLDVIEW
 70
1
  9
$SHADEDGE
 70
3
  9
$SHADEDIF
 70
70
  9
$TILEMODE
 70
1
  9
$MAXACTVP
 70
64
  9
$PINSBASE
 10
0.0
 20
0.0
 30
0.0
  9
$PLIMCHECK
 70
0
  9
$PEXTMIN
 10
1e+20
 20
1e+20
 30
1e+20
  9
$PEXTMAX
 10
-1e+20
 20
-1e+20
 30
-1e+20
  9
$PLIMMIN
 10
0.0
 20
0.0
  9
$PLIMMAX
 10
420.0
 20
297.0
  9
$UNITMODE
 70
0
  9
$VISRETAIN
 70
1
  9
$PLINEGEN
 70
0
  9
$PSLTSCALE
 70
1
  9
$TREEDEPTH
 70
3020
  9
$CMLSTYLE
  2
Standard
  9
$CMLJUST
 70
0
  9
$CMLSCALE
 40
20.0
  9
$PROXYGRAPHICS
 70
1
  9
$MEASUREMENT
 70
1
  9
$CELWEIGHT
370
-1
  9
$ENDCAPS
280
0
  9
$JOINSTYLE
280
0
  9
$LWDISPLAY
290
0
  9
$INSUNITS
 70
4
  9
$HYPERLINKBASE
  1

  9
$STYLESHEET
  1

  9
$XEDIT
290
1
  9
$CEPSNTYPE
380
0
  9
$PSTYLEMODE
290
1
  9
$FINGERPRINTGUID
  2
{D134FEB8-9043-4664-AD15-2794A33B2A78}
  9
$VERSIONGUID
  2
{1E4AA643-9E96-4C46-BD75-1C89364FF059}
  9
$EXTNAMES
290
1
  9
$PSVPSCALE
 40
0.0
  9
$OLESTARTUP
290
0
  0
ENDSEC
  0
SECTION
  2
CLASSES
  0
CLASS
  1
ACDBDICTIONARYWDFLT
  2
AcDbDictionaryWithDefault
  3
ObjectDBX Classes
 90
0
280
0
281
0
  0
CLASS
  1
SUN
  2
AcDbSun
  3
SCENEOE
 90
1153
280
0
281
0
  0
CLASS
  1
VISUALSTYLE
  2
AcDbVisualStyle
  3
ObjectDBX Classes
 90
4095
280
0
281
0
  0
CLASS
  1
MATERIAL
  2
AcDbMaterial
  3
ObjectDBX Classes
 90
1153
280
0
281
0
  0
CLASS
  1
SCALE
  2
AcDbScale
  3
ObjectDBX Classes
 90
1153
280
0
281
0
  0
CLASS
  1
TABLESTYLE
  2
AcDbTableStyle
  3
ObjectDBX Classes
 90
4095
280
0
281
0
  0
CLASS
  1
MLEADERSTYLE
  2
AcDbMLeaderStyle
  3
ACDB_MLEADERSTYLE_CLASS
 90
4095
280
0
281
0
  0
CLASS
  1
DICTIONARYVAR
  2
AcDbDictionaryVar
  3
ObjectDBX Classes
 90
0
280
0
281
0
  0
CLASS
  1
CELLSTYLEMAP
  2
AcDbCellStyleMap
  3
ObjectDBX Classes
 90
1152
280
0
281
0
  0
CLASS
  1
MENTALRAYRENDERSETTINGS
  2
AcDbMentalRayRenderSettings
  3
SCENEOE
 90
1024
280
0
281
0
  0
CLASS
  1
ACDBDETAILVIEWSTYLE
  2
AcDbDetailViewStyle
  3
ObjectDBX Classes
 90
1025
280
0
281
0
  0
CLASS
  1
ACDBSECTIONVIEWSTYLE
  2
AcDbSectionViewStyle
  3
ObjectDBX Classes
 90
1025
280
0
281
0
  0
CLASS
  1
RASTERVARIABLES
  2
AcDbRasterVariables
  3
ISM
 90
0
280
0
281
0
  0
CLASS
  1
ACDBPLACEHOLDER
  2
AcDbPlaceHolder
  3
ObjectDBX Classes
 90
0
280
0
281
0
  0
CLASS
  1
LAYOUT
  2
AcDbLayout
  3
ObjectDBX Classes
 90
0
280
0
281
0
  0
ENDSEC
  0
SECTION
  2
TABLES
  0
TABLE
  2
VPORT
  5
8
330
0
100
AcDbSymbolTable
 70
1
  0
VPORT
  5
23
330
8
100
AcDbSymbolTableRecord
100
AcDbViewportTableRecord
  2
*Active
 70
0
 10
0.0
 20
0.0
 11
1.0
 21
1.0
 12
0.0
 22
0.0
 13
0.0
 23
0.0
 14
0.5
 24
0.5
 15
0.5
 25
0.5
 16
0.0
 26
0.0
 36
1.0
 17
0.0
 27
0.0
 37
0.0
 40
1000.0
 41
1.34
 42
50.0
 43
0.0
 44
0.0
 50
0.0
 51
0.0
 71
0
 72
1000
 73
1
 74
3
 75
0
 76
0
 77
0
 78
0
281
0
 65
0
146
0.0
  0
ENDTAB
  0
TABLE
  2
LTYPE
  5
2
330
0
100
AcDbSymbolTable
 70
3
  0
LTYPE
  5
24
330
2
100
AcDbSymbolTableRecord
100
AcDbLinetypeTableRecord
  2
ByBlock
 70
0
  3

 72
65
 73
0
 40
0.0
  0
LTYPE
  5
25
330
2
100
AcDbSymbolTableRecord
100
AcDbLinetypeTableRecord
  2
ByLayer
 70
0
  3

 72
65
 73
0
 40
0.0
  0
LTYPE
  5
26
330
2
100
AcDbSymbolTableRecord
100
AcDbLinetypeTableRecord
  2
Continuous
 70
0
  3

 72
65
 73
0
 40
0.0
  0
ENDTAB
  0
TABLE
  2
LAYER
  5
1
330
0
100
AcDbSymbolTable
 70
5
  0
LAYER
  5
27
330
1
100
AcDbSymbolTableRecord
100
AcDbLayerTableRecord
  2
0
 70
0
 62
7
  6
Continuous
370
-3
390
13
  0
LAYER
  5
28
330
1
100
AcDbSymbolTableRecord
100
AcDbLayerTableRecord
  2
Defpoints
 70
0
 62
7
  6
Continuous
290
0
370
-3
390
13
  0
LAYER
  5
2F
330
1
100
AcDbSymbolTableRecord
100
AcDbLayerTableRecord
  2
ISO_PIPE
 70
0
 62
1
  6
Continuous
370
70
390
13
  0
LAYER
  5
30
330
1
100
AcDbSymbolTableRecord
100
AcDbLayerTableRecord
  2
ISO_DIM
 70
0
 62
2
  6
Continuous
370
25
390
13
  0
LAYER
  5
31
330
1
100
AcDbSymbolTableRecord
100
AcDbLayerTableRecord
  2
ISO_TEXT
 70
0
 62
2
  6
Continuous
370
25
390
13
  0
ENDTAB
  0
TABLE
  2
STYLE
  5
5
330
0
100
AcDbSymbolTable
 70
1
  0
STYLE
  5
29
330
5
100
AcDbSymbolTableRecord
100
AcDbTextStyleTableRecord
  2
Standard
 70
0
 40
0.0
 41
1.0
 50
0.0
 71
0
 42
2.5
  3
txt
  4

  0
ENDTAB
  0
TABLE
  2
VIEW
  5
7
330
0
100
AcDbSymbolTable
 70
0
  0
ENDTAB
  0
TABLE
  2
UCS
  5
6
330
0
100
AcDbSymbolTable
 70
0
  0
ENDTAB
  0
TABLE
  2
APPID
  5
3
330
0
100
AcDbSymbolTable
 70
3
  0
APPID
  5
2A
330
3
100
AcDbSymbolTableRecord
100
AcDbRegAppTableRecord
  2
ACAD
 70
0
  0
APPID
  5
AD
330
3
100
AcDbSymbolTableRecord
100
AcDbRegAppTableRecord
  2
HATCHBACKGROUNDCOLOR
 70
0
  0
APPID
  5
AE
330
3
100
AcDbSymbolTableRecord
100
AcDbRegAppTableRecord
  2
EZDXF
 70
0
  0
ENDTAB
  0
TABLE
  2
DIMSTYLE
  5
4
330
0
100
AcDbSymbolTable
 70
1
100
AcDbDimStyleTable
  0
DIMSTYLE
105
2B
330
4
100
AcDbSymbolTableRecord
100
AcDbDimStyleTableRecord
  2
Standard
 70
0
  3

  4

 40
1.0
 41
2.5
 42
0.625
 43
3.75
 44
1.25
 45
0.0
 46
0.0
 47
0.0
 48
0.0
140
2.5
141
2.5
142
0.0
143
0.03937007874
144
1.0
145
0.0
146
1.0
147
0.625
148
0.0
 71
0
 72
0
 73
0
 74
0
 75
0
 76
0
 77
1
 78
8
 79
3
170
0
171
3
172
1
173
0
174
0
175
0
176
0
177
0
178
0
179
2
271
2
272
2
273
2
274
3
275
0
276
0
277
2
278
44
279
0
280
0
281
0
282
0
283
0
284
8
285
0
286
0
288
0
289
3
371
-2
372
-2
  0
ENDTAB
  0
TABLE
  2
BLOCK_RECORD
  5
9
330
0
100
AcDbSymbolTable
 70
8
  0
BLOCK_RECORD
  5
17
330
9
100
AcDbSymbolTableRecord
100
AcDbBlockTableRecord
  2
*Model_Space
340
1A
  0
BLOCK_RECORD
  5
1B
330
9
100
AcDbSymbolTableRecord
100
AcDbBlockTableRecord
  2
*Paper_Space
340
1E
  0
BLOCK_RECORD
  5
3B
330
9
100
AcDbSymbolTableRecord
100
AcDbBlockTableRecord
  2
*D1
340
0
  0
BLOCK_RECORD
  5
40
330
9
100
AcDbSymbolTableRecord
100
AcDbBlockTableRecord
  2
_CLOSEDFILLED
340
0
  0
BLOCK_RECORD
  5
4F
330
9
100
AcDbSymbolTableRecord
100
AcDbBlockTableRecord
  2
*D2
340
0
  0
BLOCK_RECORD
  5
5F
330
9
100
AcDbSymbolTableRecord
100
AcDbBlockTableRecord
  2
*D3
340
0
  0
BLOCK_RECORD
  5
6F
330
9
100
AcDbSymbolTableRecord
100
AcDbBlockTableRecord
  2
*D4
340
0
  0
BLOCK_RECORD
  5
7F
330
9
100
AcDbSymbolTableRecord
100
AcDbBlockTableRecord
  2
*D5
340
0
  0
ENDTAB
  0
ENDSEC
  0
SECTION
  2
BLOCKS
  0
BLOCK
  5
18
330
17
100
AcDbEntity
  8
0
100
AcDbBlockBegin
  2
*Model_Space
 70
0
 10
0.0
 20
0.0
 30
0.0
  3
*Model_Space
  1

  0
ENDBLK
  5
19
330
17
100
AcDbEntity
  8
0
100
AcDbBlockEnd
  0
BLOCK
  5
1C
330
1B
100
AcDbEntity
  8
0
100
AcDbBlockBegin
  2
*Paper_Space
 70
0
 10
0.0
 20
0.0
 30
0.0
  3
*Paper_Space
  1

  0
ENDBLK
  5
1D
330
1B
100
AcDbEntity
  8
0
100
AcDbBlockEnd
  0
BLOCK
  5
3C
330
3B
100
AcDbEntity
  8
0
100
AcDbBlockBegin
  2
*D1
 70
1
 10
0.0
 20
0.0
 30
0.0
  3
*D1
  1

  0
LINE
  5
3E
330
3B
100
AcDbEntity
  8
0
100
AcDbLine
 10
216.0948357550151
 20
121.41771596336598
 30
0.0
 11
220.0948357550151
 21
114.48951273309046
 31
0.0
  0
LINE
  5
3F
330
3B
100
AcDbEntity
  8
0
100
AcDbLine
 10
130.90278475172798
 20
72.23206238380185
 30
0.0
 11
134.902784751728
 21
65.30385915352633
 31
0.0
  0
INSERT
  5
44
330
3B
100
AcDbEntity
  8
ISO_DIM
100
AcDbBlockReference
  2
_CLOSEDFILLED
 10
220.0948357550151
 20
114.48951273309046
 30
0.0
 41
0.25
 42
0.25
 50
30.0
  0
INSERT
  5
46
330
3B
100
AcDbEntity
  8
ISO_DIM
100
AcDbBlockReference
  2
_CLOSEDFILLED
 10
134.902784751728
 20
65.30385915352633
 30
0.0
 41
0.25
 42
0.25
 50
-150.0
  0
LINE
  5
48
330
3B
100
AcDbEntity
  8
0
100
AcDbLine
 10
219.878329404069
 20
114.36451273309046
 30
0.0
 11
178.99881025337157
 21
90.76271134709285
 31
0.0
  0
LINE
  5
49
330
3B
100
AcDbEntity
  8
0
100
AcDbLine
 10
175.99881025337157
 20
89.03066053952396
 30
0.0
 11
135.1192911026741
 21
65.42885915352633
 31
0.0
  0
MTEXT
  5
4A
330
3B
100
AcDbEntity
  8
ISO_DIM
100
AcDbMText
 10
177.49881025337157
 20
89.8966859433084
 30
0.0
 40
1.0
 71
5
  1
603
  0
POINT
  5
4B
330
3B
100
AcDbEntity
  8
Defpoints
100
AcDbPoint
 10
220.0948357550151
 20
114.48951273309046
 30
0.0
  0
POINT
  5
4C
330
3B
100
AcDbEntity
  8
Defpoints
100
AcDbPoint
 10
216.0948357550151
 20
121.41771596336598
 30
0.0
  0
POINT
  5
4D
330
3B
100
AcDbEntity
  8
Defpoints
100
AcDbPoint
 10
130.90278475172798
 20
72.23206238380185
 30
0.0
  0
ENDBLK
  5
3D
330
3B
100
AcDbEntity
  8
0
100
AcDbBlockEnd
  0
BLOCK
  5
41
330
40
100
AcDbEntity
  8
0
100
AcDbBlockBegin
  2
_CLOSEDFILLED
 70
0
 10
0.0
 20
0.0
 30
0.0
  3
_CLOSEDFILLED
  1

  0
SOLID
  5
43
330
40
100
AcDbEntity
  8
0
  6
BYBLOCK
 62
0
100
AcDbTrace
 10
-1.0
 20
0.16439898372402537
 30
0.0
 11
0.0
 21
0.0
 31
0.0
 12
-1.0
 22
-0.16439898372402537
 32
0.0
 13
-1.0
 23
-0.16439898372402537
 33
0.0
  0
ENDBLK
  5
42
330
40
100
AcDbEntity
  8
0
100
AcDbBlockEnd
  0
BLOCK
  5
50
330
4F
100
AcDbEntity
  8
0
100
AcDbBlockBegin
  2
*D2
 70
1
 10
0.0
 20
0.0
 30
0.0
  3
*D2
  1

  0
LINE
  5
52
330
4F
100
AcDbEntity
  8
0
100
AcDbLine
 10
216.0948357550151
 20
121.41771596336598
 30
0.0
 11
208.0948357550151
 21
121.41771596336598
 31
0.0
  0
LINE
  5
53
330
4F
100
AcDbEntity
  8
0
100
AcDbLine
 10
216.0948357550151
 20
204.37824279135026
 30
0.0
 11
208.0948357550151
 21
204.37824279135026
 31
0.0
  0
INSERT
  5
54
330
4F
100
AcDbEntity
  8
ISO_DIM
100
AcDbBlockReference
  2
_CLOSEDFILLED
 10
208.0948357550151
 20
121.41771596336598
 30
0.0
 41
0.25
 42
0.25
 50
270.0
  0
INSERT
  5
56
330
4F
100
AcDbEntity
  8
ISO_DIM
100
AcDbBlockReference
  2
_CLOSEDFILLED
 10
208.0948357550151
 20
204.37824279135026
 30
0.0
 41
0.25
 42
0.25
 50
90.0
  0
LINE
  5
58
330
4F
100
AcDbEntity
  8
0
100
AcDbLine
 10
208.0948357550151
 20
121.66771596336598
 30
0.0
 11
208.0948357550151
 21
161.92922937735813
 31
0.0
  0
LINE
  5
59
330
4F
100
AcDbEntity
  8
0
100
AcDbLine
 10
208.0948357550151
 20
163.86672937735813
 30
0.0
 11
208.0948357550151
 21
204.12824279135026
 31
0.0
  0
MTEXT
  5
5A
330
4F
100
AcDbEntity
  8
ISO_DIM
100
AcDbMText
 10
208.0948357550151
 20
162.89797937735813
 30
0.0
 40
1.0
 71
5
  1
380
  0
POINT
  5
5B
330
4F
100
AcDbEntity
  8
Defpoints
100
AcDbPoint
 10
208.0948357550151
 20
121.41771596336598
 30
0.0
  0
POINT
  5
5C
330
4F
100
AcDbEntity
  8
Defpoints
100
AcDbPoint
 10
216.0948357550151
 20
121.41771596336598
 30
0.0
  0
POINT
  5
5D
330
4F
100
AcDbEntity
  8
Defpoints
100
AcDbPoint
 10
216.0948357550151
 20
204.37824279135026
 30
0.0
  0
ENDBLK
  5
51
330
4F
100
AcDbEntity
  8
0
100
AcDbBlockEnd
  0
BLOCK
  5
60
330
5F
100
AcDbEntity
  8
0
100
AcDbBlockBegin
  2
*D3
 70
1
 10
0.0
 20
0.0
 30
0.0
  3
*D3
  1

  0
LINE
  5
62
330
5F
100
AcDbEntity
  8
0
100
AcDbLine
 10
216.0948357550151
 20
204.37824279135026
 30
0.0
 11
212.09483575501514
 21
197.45003956107476
 31
0.0
  0
LINE
  5
63
330
5F
100
AcDbEntity
  8
0
100
AcDbLine
 10
123.44420817940862
 20
257.8701075627144
 30
0.0
 11
119.44420817940863
 21
250.94190433243887
 31
0.0
  0
INSERT
  5
64
330
5F
100
AcDbEntity
  8
ISO_DIM
100
AcDbBlockReference
  2
_CLOSEDFILLED
 10
212.09483575501514
 20
197.45003956107476
 30
0.0
 41
0.25
 42
0.25
 50
330.0
  0
INSERT
  5
66
330
5F
100
AcDbEntity
  8
ISO_DIM
100
AcDbBlockReference
  2
_CLOSEDFILLED
 10
119.44420817940863
 20
250.94190433243887
 30
0.0
 41
0.25
 42
0.25
 50
150.00000000000003
  0
LINE
  5
68
330
5F
100
AcDbEntity
  8
0
100
AcDbLine
 10
211.87832940406904
 20
197.57503956107476
 30
0.0
 11
167.2695219672119
 21
223.32994654297238
 31
0.0
  0
LINE
  5
69
330
5F
100
AcDbEntity
  8
0
100
AcDbLine
 10
164.2695219672119
 20
225.06199735054125
 30
0.0
 11
119.66071453035474
 21
250.81690433243887
 31
0.0
  0
MTEXT
  5
6A
330
5F
100
AcDbEntity
  8
ISO_DIM
100
AcDbMText
 10
165.7695219672119
 20
224.1959719467568
 30
0.0
 40
1.0
 71
5
  1
757
  0
POINT
  5
6B
330
5F
100
AcDbEntity
  8
Defpoints
100
AcDbPoint
 10
212.09483575501514
 20
197.45003956107476
 30
0.0
  0
POINT
  5
6C
330
5F
100
AcDbEntity
  8
Defpoints
100
AcDbPoint
 10
216.0948357550151
 20
204.37824279135026
 30
0.0
  0
POINT
  5
6D
330
5F
100
AcDbEntity
  8
Defpoints
100
AcDbPoint
 10
123.44420817940862
 20
257.8701075627144
 30
0.0
  0
ENDBLK
  5
61
330
5F
100
AcDbEntity
  8
0
100
AcDbBlockEnd
  0
BLOCK
  5
70
330
6F
100
AcDbEntity
  8
0
100
AcDbBlockBegin
  2
*D4
 70
1
 10
0.0
 20
0.0
 30
0.0
  3
*D4
  1

  0
LINE
  5
72
330
6F
100
AcDbEntity
  8
0
100
AcDbLine
 10
123.44420817940862
 20
257.8701075627144
 30
0.0
 11
119.44420817940862
 21
264.7983107929899
 31
0.0
  0
LINE
  5
73
330
6F
100
AcDbEntity
  8
0
100
AcDbLine
 10
236.55579182059137
 20
323.1751108264161
 30
0.0
 11
232.5557918205914
 21
330.1033140566916
 31
0.0
  0
INSERT
  5
74
330
6F
100
AcDbEntity
  8
ISO_DIM
100
AcDbBlockReference
  2
_CLOSEDFILLED
 10
119.44420817940862
 20
264.7983107929899
 30
0.0
 41
0.25
 42
0.25
 50
209.99999999999997
  0
INSERT
  5
76
330
6F
100
AcDbEntity
  8
ISO_DIM
100
AcDbBlockReference
  2
_CLOSEDFILLED
 10
232.5557918205914
 20
330.1033140566916
 30
0.0
 41
0.25
 42
0.25
 50
29.99999999999998
  0
LINE
  5
78
330
6F
100
AcDbEntity
  8
0
100
AcDbLine
 10
119.66071453035472
 20
264.9233107929899
 30
0.0
 11
174.32207578016767
 21
296.48206242484076
 31
0.0
  0
LINE
  5
79
330
6F
100
AcDbEntity
  8
0
100
AcDbLine
 10
177.67792421983236
 20
298.41956242484076
 30
0.0
 11
232.3392854696453
 21
329.9783140566916
 31
0.0
  0
MTEXT
  5
7A
330
6F
100
AcDbEntity
  8
ISO_DIM
100
AcDbMText
 10
176.0
 20
297.45081242484076
 30
0.0
 40
1.0
 71
5
  1
1300
  0
POINT
  5
7B
330
6F
100
AcDbEntity
  8
Defpoints
100
AcDbPoint
 10
119.44420817940862
 20
264.7983107929899
 30
0.0
  0
POINT
  5
7C
330
6F
100
AcDbEntity
  8
Defpoints
100
AcDbPoint
 10
123.44420817940862
 20
257.8701075627144
 30
0.0
  0
POINT
  5
7D
330
6F
100
AcDbEntity
  8
Defpoints
100
AcDbPoint
 10
236.55579182059137
 20
323.1751108264161
 30
0.0
  0
ENDBLK
  5
71
330
6F
100
AcDbEntity
  8
0
100
AcDbBlockEnd
  0
BLOCK
  5
80
330
7F
100
AcDbEntity
  8
0
100
AcDbBlockBegin
  2
*D5
 70
1
 10
0.0
 20
0.0
 30
0.0
  3
*D5
  1

  0
LINE
  5
82
330
7F
100
AcDbEntity
  8
0
100
AcDbLine
 10
236.55579182059137
 20
323.1751108264161
 30
0.0
 11
244.55579182059137
 21
323.1751108264161
 31
0.0
  0
LINE
  5
83
330
7F
100
AcDbEntity
  8
0
100
AcDbLine
 10
236.55579182059137
 20
240.2145839984318
 30
0.0
 11
244.55579182059137
 21
240.2145839984318
 31
0.0
  0
INSERT
  5
84
330
7F
100
AcDbEntity
  8
ISO_DIM
100
AcDbBlockReference
  2
_CLOSEDFILLED
 10
244.55579182059137
 20
323.1751108264161
 30
0.0
 41
0.25
 42
0.25
 50
90.0
  0
INSERT
  5
86
330
7F
100
AcDbEntity
  8
ISO_DIM
100
AcDbBlockReference
  2
_CLOSEDFILLED
 10
244.55579182059137
 20
240.2145839984318
 30
0.0
 41
0.25
 42
0.25
 50
-90.0
  0
LINE
  5
88
330
7F
100
AcDbEntity
  8
0
100
AcDbLine
 10
244.55579182059137
 20
322.9251108264161
 30
0.0
 11
244.55579182059137
 21
282.66359741242394
 31
0.0
  0
LINE
  5
89
330
7F
100
AcDbEntity
  8
0
100
AcDbLine
 10
244.55579182059137
 20
280.72609741242394
 30
0.0
 11
244.55579182059137
 21
240.4645839984318
 31
0.0
  0
MTEXT
  5
8A
330
7F
100
AcDbEntity
  8
ISO_DIM
100
AcDbMText
 10
244.55579182059137
 20
281.69484741242394
 30
0.0
 40
1.0
 71
5
  1
380
  0
POINT
  5
8B
330
7F
100
AcDbEntity
  8
Defpoints
100
AcDbPoint
 10
244.55579182059137
 20
323.1751108264161
 30
0.0
  0
POINT
  5
8C
330
7F
100
AcDbEntity
  8
Defpoints
100
AcDbPoint
 10
236.55579182059137
 20
323.1751108264161
 30
0.0
  0
POINT
  5
8D
330
7F
100
AcDbEntity
  8
Defpoints
100
AcDbPoint
 10
236.55579182059137
 20
240.2145839984318
 30
0.0
  0
ENDBLK
  5
81
330
7F
100
AcDbEntity
  8
0
100
AcDbBlockEnd
  0
ENDSEC
  0
SECTION
  2
ENTITIES
  0
LINE
  5
32
330
17
100
AcDbEntity
  8
ISO_PIPE
100
AcDbLine
 10
173.49881025337154
 20
96.82488917358391
 30
0.0
 11
216.0948357550151
 21
121.41771596336598
 31
0.0
  0
LINE
  5
33
330
17
100
AcDbEntity
  8
ISO_PIPE
100
AcDbLine
 10
216.0948357550151
 20
121.41771596336598
 30
0.0
 11
216.0948357550151
 21
162.89797937735813
 31
0.0
  0
LINE
  5
34
330
17
100
AcDbEntity
  8
ISO_PIPE
100
AcDbLine
 10
216.0948357550151
 20
162.89797937735813
 30
0.0
 11
216.0948357550151
 21
204.37824279135026
 31
0.0
  0
LINE
  5
35
330
17
100
AcDbEntity
  8
ISO_PIPE
100
AcDbLine
 10
216.0948357550151
 20
204.37824279135026
 30
0.0
 11
169.76952196721186
 21
231.12417517703233
 31
0.0
  0
LINE
  5
36
330
17
100
AcDbEntity
  8
ISO_PIPE
100
AcDbLine
 10
169.76952196721186
 20
231.12417517703233
 30
0.0
 11
123.44420817940862
 21
257.8701075627144
 31
0.0
  0
LINE
  5
37
330
17
100
AcDbEntity
  8
ISO_PIPE
100
AcDbLine
 10
123.44420817940862
 20
257.8701075627144
 30
0.0
 11
180.0
 21
290.52260919456523
 31
0.0
  0
LINE
  5
38
330
17
100
AcDbEntity
  8
ISO_PIPE
100
AcDbLine
 10
180.0
 20
290.52260919456523
 30
0.0
 11
236.55579182059137
 21
323.1751108264161
 31
0.0
  0
LINE
  5
39
330
17
100
AcDbEntity
  8
ISO_PIPE
100
AcDbLine
 10
236.55579182059137
 20
323.1751108264161
 30
0.0
 11
236.55579182059137
 21
281.69484741242394
 31
0.0
  0
DIMENSION
  5
3A
330
17
100
AcDbEntity
  8
ISO_DIM
100
AcDbDimension
  2
*D1
  3
Standard
 10
220.0948357550151
 20
114.48951273309046
 30
0.0
 11
177.49881025337157
 21
89.8966859433084
 31
0.0
 70
32
 71
5
  1
603
100
AcDbAlignedDimension
 13
216.0948357550151
 23
121.41771596336598
 33
0.0
 14
130.90278475172798
 24
72.23206238380185
 34
0.0
 50
-150.0
100
AcDbRotatedDimension
1001
ACAD
1000
DSTYLE
1002
{
1070
73
1070
1
1070
74
1070
1
1002
}
  0
DIMENSION
  5
4E
330
17
100
AcDbEntity
  8
ISO_DIM
100
AcDbDimension
  2
*D2
  3
Standard
 10
208.0948357550151
 20
121.41771596336598
 30
0.0
 11
208.0948357550151
 21
162.89797937735813
 31
0.0
 70
32
 71
5
  1
380
100
AcDbAlignedDimension
 13
216.0948357550151
 23
121.41771596336598
 33
0.0
 14
216.0948357550151
 24
204.37824279135026
 34
0.0
 50
90.0
100
AcDbRotatedDimension
1001
ACAD
1000
DSTYLE
1002
{
1070
73
1070
1
1070
74
1070
1
1002
}
  0
DIMENSION
  5
5E
330
17
100
AcDbEntity
  8
ISO_DIM
100
AcDbDimension
  2
*D3
  3
Standard
 10
212.09483575501514
 20
197.45003956107476
 30
0.0
 11
165.7695219672119
 21
224.1959719467568
 31
0.0
 70
32
 71
5
  1
757
100
AcDbAlignedDimension
 13
216.0948357550151
 23
204.37824279135026
 33
0.0
 14
123.44420817940862
 24
257.8701075627144
 34
0.0
 50
150.00000000000003
100
AcDbRotatedDimension
1001
ACAD
1000
DSTYLE
1002
{
1070
73
1070
1
1070
74
1070
1
1002
}
  0
DIMENSION
  5
6E
330
17
100
AcDbEntity
  8
ISO_DIM
100
AcDbDimension
  2
*D4
  3
Standard
 10
119.44420817940862
 20
264.7983107929899
 30
0.0
 11
176.0
 21
297.45081242484076
 31
0.0
 70
32
 71
5
  1
1300
100
AcDbAlignedDimension
 13
123.44420817940862
 23
257.8701075627144
 33
0.0
 14
236.55579182059137
 24
323.1751108264161
 34
0.0
 50
29.99999999999998
100
AcDbRotatedDimension
1001
ACAD
1000
DSTYLE
1002
{
1070
73
1070
1
1070
74
1070
1
1002
}
  0
DIMENSION
  5
7E
330
17
100
AcDbEntity
  8
ISO_DIM
100
AcDbDimension
  2
*D5
  3
Standard
 10
244.55579182059137
 20
323.1751108264161
 30
0.0
 11
244.55579182059137
 21
281.69484741242394
 31
0.0
 70
32
 71
5
  1
380
100
AcDbAlignedDimension
 13
236.55579182059137
 23
323.1751108264161
 33
0.0
 14
236.55579182059137
 24
240.2145839984318
 34
0.0
 50
-90.0
100
AcDbRotatedDimension
1001
ACAD
1000
DSTYLE
1002
{
1070
73
1070
1
1070
74
1070
1
1002
}
  0
LINE
  5
8E
330
17
100
AcDbEntity
  8
ISO_TEXT
100
AcDbLine
 10
385.0
 20
395.0
 30
0.0
 11
580.0
 21
395.0
 31
0.0
  0
LINE
  5
8F
330
17
100
AcDbEntity
  8
ISO_TEXT
100
AcDbLine
 10
385.0
 20
395.0
 30
0.0
 11
385.0
 21
387.0
 31
0.0
  0
TEXT
  5
90
330
17
100
AcDbEntity
  8
0
100
AcDbText
 10
391.0
 20
391.0
 30
0.0
 40
2.5
  1
POS
 72
1
 11
391.0
 21
391.0
 31
0.0
100
AcDbText
 73
2
  0
LINE
  5
91
330
17
100
AcDbEntity
  8
ISO_TEXT
100
AcDbLine
 10
397.0
 20
395.0
 30
0.0
 11
397.0
 21
387.0
 31
0.0
  0
TEXT
  5
92
330
17
100
AcDbEntity
  8
0
100
AcDbText
 10
407.0
 20
391.0
 30
0.0
 40
2.5
  1
QTY
 72
1
 11
407.0
 21
391.0
 31
0.0
100
AcDbText
 73
2
  0
LINE
  5
93
330
17
100
AcDbEntity
  8
ISO_TEXT
100
AcDbLine
 10
417.0
 20
395.0
 30
0.0
 11
417.0
 21
387.0
 31
0.0
  0
TEXT
  5
94
330
17
100
AcDbEntity
  8
0
100
AcDbText
 10
432.0
 20
391.0
 30
0.0
 40
2.5
  1
SIZE
 72
1
 11
432.0
 21
391.0
 31
0.0
100
AcDbText
 73
2
  0
LINE
  5
95
330
17
100
AcDbEntity
  8
ISO_TEXT
100
AcDbLine
 10
447.0
 20
395.0
 30
0.0
 11
447.0
 21
387.0
 31
0.0
  0
TEXT
  5
96
330
17
100
AcDbEntity
  8
0
100
AcDbText
 10
513.5
 20
391.0
 30
0.0
 40
2.5
  1
DESCRIPTION
 72
1
 11
513.5
 21
391.0
 31
0.0
100
AcDbText
 73
2
  0
LINE
  5
97
330
17
100
AcDbEntity
  8
ISO_TEXT
100
AcDbLine
 10
580.0
 20
395.0
 30
0.0
 11
580.0
 21
387.0
 31
0.0
  0
LINE
  5
98
330
17
100
AcDbEntity
  8
ISO_TEXT
100
AcDbLine
 10
385.0
 20
386.0
 30
0.0
 11
580.0
 21
386.0
 31
0.0
  0
LINE
  5
99
330
17
100
AcDbEntity
  8
ISO_TEXT
100
AcDbLine
 10
385.0
 20
386.0
 30
0.0
 11
385.0
 21
378.0
 31
0.0
  0
TEXT
  5
9A
330
17
100
AcDbEntity
  8
0
100
AcDbText
 10
391.0
 20
382.0
 30
0.0
 40
2.5
  1
1
 72
1
 11
391.0
 21
382.0
 31
0.0
100
AcDbText
 73
2
  0
LINE
  5
9B
330
17
100
AcDbEntity
  8
ISO_TEXT
100
AcDbLine
 10
397.0
 20
386.0
 30
0.0
 11
397.0
 21
378.0
 31
0.0
  0
TEXT
  5
9C
330
17
100
AcDbEntity
  8
0
100
AcDbText
 10
407.0
 20
382.0
 30
0.0
 40
2.5
  1
3.42 m
 72
1
 11
407.0
 21
382.0
 31
0.0
100
AcDbText
 73
2
  0
LINE
  5
9D
330
17
100
AcDbEntity
  8
ISO_TEXT
100
AcDbLine
 10
417.0
 20
386.0
 30
0.0
 11
417.0
 21
378.0
 31
0.0
  0
TEXT
  5
9E
330
17
100
AcDbEntity
  8
0
100
AcDbText
 10
432.0
 20
382.0
 30
0.0
 40
2.5
  1
N/A
 72
1
 11
432.0
 21
382.0
 31
0.0
100
AcDbText
 73
2
  0
LINE
  5
9F
330
17
100
AcDbEntity
  8
ISO_TEXT
100
AcDbLine
 10
447.0
 20
386.0
 30
0.0
 11
447.0
 21
378.0
 31
0.0
  0
TEXT
  5
A0
330
17
100
AcDbEntity
  8
0
100
AcDbText
 10
513.5
 20
382.0
 30
0.0
 40
2.5
  1
PIPE Pipe 2inch
 72
1
 11
513.5
 21
382.0
 31
0.0
100
AcDbText
 73
2
  0
LINE
  5
A1
330
17
100
AcDbEntity
  8
ISO_TEXT
100
AcDbLine
 10
580.0
 20
386.0
 30
0.0
 11
580.0
 21
378.0
 31
0.0
  0
LINE
  5
A2
330
17
100
AcDbEntity
  8
ISO_TEXT
100
AcDbLine
 10
385.0
 20
377.0
 30
0.0
 11
580.0
 21
377.0
 31
0.0
  0
LINE
  5
A3
330
17
100
AcDbEntity
  8
ISO_TEXT
100
AcDbLine
 10
385.0
 20
377.0
 30
0.0
 11
385.0
 21
369.0
 31
0.0
  0
TEXT
  5
A4
330
17
100
AcDbEntity
  8
0
100
AcDbText
 10
391.0
 20
373.0
 30
0.0
 40
2.5
  1
2
 72
1
 11
391.0
 21
373.0
 31
0.0
100
AcDbText
 73
2
  0
LINE
  5
A5
330
17
100
AcDbEntity
  8
ISO_TEXT
100
AcDbLine
 10
397.0
 20
377.0
 30
0.0
 11
397.0
 21
369.0
 31
0.0
  0
TEXT
  5
A6
330
17
100
AcDbEntity
  8
0
100
AcDbText
 10
407.0
 20
373.0
 30
0.0
 40
2.5
  1
4
 72
1
 11
407.0
 21
373.0
 31
0.0
100
AcDbText
 73
2
  0
LINE
  5
A7
330
17
100
AcDbEntity
  8
ISO_TEXT
100
AcDbLine
 10
417.0
 20
377.0
 30
0.0
 11
417.0
 21
369.0
 31
0.0
  0
TEXT
  5
A8
330
17
100
AcDbEntity
  8
0
100
AcDbText
 10
432.0
 20
373.0
 30
0.0
 40
2.5
  1
N/A
 72
1
 11
432.0
 21
373.0
 31
0.0
100
AcDbText
 73
2
  0
LINE
  5
A9
330
17
100
AcDbEntity
  8
ISO_TEXT
100
AcDbLine
 10
447.0
 20
377.0
 30
0.0
 11
447.0
 21
369.0
 31
0.0
  0
TEXT
  5
AA
330
17
100
AcDbEntity
  8
0
100
AcDbText
 10
513.5
 20
373.0
 30
0.0
 40
2.5
  1
Elbow Generic
 72
1
 11
513.5
 21
373.0
 31
0.0
100
AcDbText
 73
2
  0
LINE
  5
AB
330
17
100
AcDbEntity
  8
ISO_TEXT
100
AcDbLine
 10
580.0
 20
377.0
 30
0.0
 11
580.0
 21
369.0
 31
0.0
  0
LINE
  5
AC
330
17
100
AcDbEntity
  8
ISO_TEXT
100
AcDbLine
 10
385.0
 20
368.0
 30
0.0
 11
580.0
 21
368.0
 31
0.0
  0
ENDSEC
  0
SECTION
  2
OBJECTS
  0
DICTIONARY
  5
A
330
0
100
AcDbDictionary
281
1
  3
ACAD_COLOR
350
B
  3
ACAD_GROUP
350
C
  3
ACAD_LAYOUT
350
D
  3
ACAD_MATERIAL
350
E
  3
ACAD_MLEADERSTYLE
350
F
  3
ACAD_MLINESTYLE
350
10
  3
ACAD_PLOTSETTINGS
350
11
  3
ACAD_PLOTSTYLENAME
350
12
  3
ACAD_SCALELIST
350
14
  3
ACAD_TABLESTYLE
350
15
  3
ACAD_VISUALSTYLE
350
16
  3
EZDXF_META
350
2D
  0
DICTIONARY
  5
B
330
A
100
AcDbDictionary
281
1
  0
DICTIONARY
  5
C
330
A
100
AcDbDictionary
281
1
  0
DICTIONARY
  5
D
330
A
100
AcDbDictionary
281
1
  3
Model
350
1A
  3
Layout1
350
1E
  0
DICTIONARY
  5
E
330
A
100
AcDbDictionary
281
1
  3
ByBlock
350
1F
  3
ByLayer
350
20
  3
Global
350
21
  0
DICTIONARY
  5
F
330
A
100
AcDbDictionary
281
1
  3
Standard
350
2C
  0
DICTIONARY
  5
10
330
A
100
AcDbDictionary
281
1
  3
Standard
350
22
  0
DICTIONARY
  5
11
330
A
100
AcDbDictionary
281
1
  0
ACDBDICTIONARYWDFLT
  5
12
330
A
100
AcDbDictionary
281
1
  3
Normal
350
13
100
AcDbDictionaryWithDefault
340
13
  0
ACDBPLACEHOLDER
  5
13
330
12
  0
DICTIONARY
  5
14
330
A
100
AcDbDictionary
281
1
  0
DICTIONARY
  5
15
330
A
100
AcDbDictionary
281
1
  0
DICTIONARY
  5
16
330
A
100
AcDbDictionary
281
1
  0
LAYOUT
  5
1A
330
D
100
AcDbPlotSettings
  1

  4
A3
  6

 40
7.5
 41
20.0
 42
7.5
 43
20.0
 44
420.0
 45
297.0
 46
0.0
 47
0.0
 48
0.0
 49
0.0
140
0.0
141
0.0
142
1.0
143
1.0
 70
1024
 72
1
 73
0
 74
5
  7

 75
16
 76
0
 77
2
 78
300
147
1.0
148
0.0
149
0.0
100
AcDbLayout
  1
Model
 70
1
 71
0
 10
0.0
 20
0.0
 11
420.0
 21
297.0
 12
0.0
 22
0.0
 32
0.0
 14
1e+20
 24
1e+20
 34
1e+20
 15
-1e+20
 25
-1e+20
 35
-1e+20
146
0.0
 13
0.0
 23
0.0
 33
0.0
 16
1.0
 26
0.0
 36
0.0
 17
0.0
 27
1.0
 37
0.0
 76
1
330
17
  0
LAYOUT
  5
1E
330
D
100
AcDbPlotSettings
  1

  4
A3
  6

 40
7.5
 41
20.0
 42
7.5
 43
20.0
 44
420.0
 45
297.0
 46
0.0
 47
0.0
 48
0.0
 49
0.0
140
0.0
141
0.0
142
1.0
143
1.0
 70
0
 72
1
 73
0
 74
5
  7

 75
16
 76
0
 77
2
 78
300
147
1.0
148
0.0
149
0.0
100
AcDbLayout
  1
Layout1
 70
1
 71
1
 10
0.0
 20
0.0
 11
420.0
 21
297.0
 12
0.0
 22
0.0
 32
0.0
 14
1e+20
 24
1e+20
 34
1e+20
 15
-1e+20
 25
-1e+20
 35
-1e+20
146
0.0
 13
0.0
 23
0.0
 33
0.0
 16
1.0
 26
0.0
 36
0.0
 17
0.0
 27
1.0
 37
0.0
 76
1
330
1B
  0
MATERIAL
  5
1F
102
{ACAD_REACTORS
330
E
102
}
330
E
100
AcDbMaterial
  1
ByBlock
  2

 70
0
 40
1.0
 71
1
 41
1.0
 91
-1023410177
 42
1.0
 72
1
  3

 73
1
 74
1
 75
1
 44
0.5
 73
0
 45
1.0
 46
1.0
 77
1
  4

 78
1
 79
1
170
1
 48
1.0
171
1
  6

172
1
173
1
174
1
140
1.0
141
1.0
175
1
  7

176
1
177
1
178
1
143
1.0
179
1
  8

270
1
271
1
272
1
145
1.0
146
1.0
273
1
  9

274
1
275
1
276
1
 42
1.0
 72
1
  3

 73
1
 74
1
 75
1
 94
63
  0
MATERIAL
  5
20
102
{ACAD_REACTORS
330
E
102
}
330
E
100
AcDbMaterial
  1
ByLayer
  2

 70
0
 40
1.0
 71
1
 41
1.0
 91
-1023410177
 42
1.0
 72
1
  3

 73
1
 74
1
 75
1
 44
0.5
 73
0
 45
1.0
 46
1.0
 77
1
  4

 78
1
 79
1
170
1
 48
1.0
171
1
  6

172
1
173
1
174
1
140
1.0
141
1.0
175
1
  7

176
1
177
1
178
1
143
1.0
179
1
  8

270
1
271
1
272
1
145
1.0
146
1.0
273
1
  9

274
1
275
1
276
1
 42
1.0
 72
1
  3

 73
1
 74
1
 75
1
 94
63
  0
MATERIAL
  5
21
102
{ACAD_REACTORS
330
E
102
}
330
E
100
AcDbMaterial
  1
Global
  2

 70
0
 40
1.0
 71
1
 41
1.0
 91
-1023410177
 42
1.0
 72
1
  3

 73
1
 74
1
 75
1
 44
0.5
 73
0
 45
1.0
 46
1.0
 77
1
  4

 78
1
 79
1
170
1
 48
1.0
171
1
  6

172
1
173
1
174
1
140
1.0
141
1.0
175
1
  7

176
1
177
1
178
1
143
1.0
179
1
  8

270
1
271
1
272
1
145
1.0
146
1.0
273
1
  9

274
1
275
1
276
1
 42
1.0
 72
1
  3

 73
1
 74
1
 75
1
 94
63
  0
MLINESTYLE
  5
22
102
{ACAD_REACTORS
330
10
102
}
330
10
100
AcDbMlineStyle
  2
Standard
 70
0
  3

 62
256
 51
90.0
 52
90.0
 71
2
 49
0.5
 62
256
  6
BYLAYER
 49
-0.5
 62
256
  6
BYLAYER
  0
MLEADERSTYLE
  5
2C
102
{ACAD_REACTORS
330
F
102
}
330
F
100
AcDbMLeaderStyle
179
2
170
2
171
1
172
0
 90
2
 40
0.0
 41
0.0
173
1
 91
-1056964608
 92
-2
290
1
 42
2.0
291
1
 43
8.0
  3
Standard
 44
4.0
300

342
29
174
1
175
1
176
0
178
1
 93
-1056964608
 45
4.0
292
0
297
0
 46
4.0
 94
-1056964608
 47
1.0
 49
1.0
140
1.0
294
1
141
0.0
177
0
142
1.0
295
0
296
0
143
3.75
271
0
272
9
273
9
  0
DICTIONARY
  5
2D
330
A
100
AcDbDictionary
280
1
281
1
  3
CREATED_BY_EZDXF
350
2E
  3
WRITTEN_BY_EZDXF
350
AF
  0
DICTIONARYVAR
  5
2E
330
2D
100
DictionaryVariables
280
0
  1
1.4.3 @ 2026-05-08T16:27:23.490169+00:00
  0
DICTIONARYVAR
  5
AF
330
2D
100
DictionaryVariables
280
0
  1
1.4.3 @ 2026-05-08T16:27:23.495944+00:00
  0
ENDSEC
  0
EOF
